<svg xmlns="http://www.w3.org/2000/svg" viewBox="0 0 1440 900" preserveAspectRatio="xMidYMid slice">
  <defs>
    <linearGradient id="sky" x1="50%" y1="0%" x2="50%" y2="100%">
      <stop offset="0%" stop-color="#0d2818"/>
      <stop offset="30%" stop-color="#1b4d32"/>
      <stop offset="65%" stop-color="#2e6b42"/>
      <stop offset="100%" stop-color="#4a8f3c"/>
    </linearGradient>
    <radialGradient id="aurora" cx="50%" cy="30%" r="60%">
      <stop offset="0%" stop-color="#5eead4" stop-opacity="0.25"/>
      <stop offset="50%" stop-color="#4ade80" stop-opacity="0.12"/>
      <stop offset="100%" stop-color="#000" stop-opacity="0"/>
    </radialGradient>
  </defs>
  <rect width="1440" height="900" fill="url(#sky)"/>
  <rect width="1440" height="900" fill="url(#aurora)"/>
  <g opacity="0.15" fill="#fff">
    <circle cx="120" cy="80" r="1.5"/>
    <circle cx="340" cy="120" r="1"/>
    <circle cx="800" cy="60" r="1.5"/>
    <circle cx="1100" cy="100" r="1"/>
    <circle cx="1300" cy="180" r="1.2"/>
    <circle cx="200" cy="200" r="1"/>
    <circle cx="600" cy="140" r="1.3"/>
  </g>
  <ellipse cx="720" cy="850" rx="800" ry="180" fill="#2d5c38" opacity="0.6"/>
  <ellipse cx="720" cy="880" rx="700" ry="150" fill="#4a8f3c" opacity="0.8"/>
  <g transform="translate(520 520)" opacity="0.85">
    <path d="M0 140 L100 70 L200 140 L200 240 L0 240 Z" fill="#4ade80" opacity="0.35"/>
    <path d="M0 140 L100 70 L200 140" fill="none" stroke="#5eead4" stroke-width="2" opacity="0.4"/>
    <path d="M220 150 L320 85 L420 150 L420 250 L220 250 Z" fill="#22c55e" opacity="0.3"/>
    <path d="M440 145 L540 78 L640 145 L640 245 L440 245 Z" fill="#16a34a" opacity="0.35"/>
  </g>
  <g transform="translate(200 560)">
    <path d="M50 160 L130 100 L210 160 L210 260 L50 260 Z" fill="#b91c1c" opacity="0.7"/>
    <path d="M90 160 L130 130 L170 160 L170 260 L90 260 Z" fill="#dc2626" opacity="0.5"/>
    <rect x="118" y="200" width="24" height="45" fill="#5d4037" opacity="0.8"/>
  </g>
  <g transform="translate(980 540)">
    <ellipse cx="80" cy="180" rx="60" ry="25" fill="#fde68a" opacity="0.4"/>
    <ellipse cx="120" cy="175" rx="45" ry="20" fill="#fbbf24" opacity="0.35"/>
  </g>
  <circle cx="720" cy="420" r="180" fill="none" stroke="#5eead4" stroke-width="1" opacity="0.12"/>
  <circle cx="720" cy="420" r="240" fill="none" stroke="#4ade80" stroke-width="1" opacity="0.08"/>
</svg>
