<svg xmlns="http://www.w3.org/2000/svg" viewBox="0 0 1440 900" preserveAspectRatio="xMidYMid slice">
  <defs>
    <linearGradient id="sky" x1="0%" y1="0%" x2="0%" y2="100%">
      <stop offset="0%" stop-color="#ff9a6c"/>
      <stop offset="35%" stop-color="#f4c56a"/>
      <stop offset="70%" stop-color="#7ec8a0"/>
      <stop offset="100%" stop-color="#3d7a52"/>
    </linearGradient>
    <linearGradient id="hill-far" x1="0%" y1="0%" x2="0%" y2="100%">
      <stop offset="0%" stop-color="#5a9e5a"/>
      <stop offset="100%" stop-color="#2d5c38"/>
    </linearGradient>
    <linearGradient id="hill-near" x1="0%" y1="0%" x2="0%" y2="100%">
      <stop offset="0%" stop-color="#6bb86b"/>
      <stop offset="100%" stop-color="#3a6b42"/>
    </linearGradient>
    <radialGradient id="sun-glow" cx="50%" cy="50%" r="50%">
      <stop offset="0%" stop-color="#fff4c2"/>
      <stop offset="55%" stop-color="#ffd54f" stop-opacity="0.9"/>
      <stop offset="100%" stop-color="#ff9800" stop-opacity="0"/>
    </radialGradient>
  </defs>
  <rect width="1440" height="900" fill="url(#sky)"/>
  <circle cx="1180" cy="140" r="120" fill="url(#sun-glow)"/>
  <circle cx="1180" cy="140" r="52" fill="#ffe082"/>
  <circle cx="1180" cy="140" r="44" fill="#ffca28"/>
  <g fill="#ffeb3b" opacity="0.85">
    <rect x="1176" y="72" width="8" height="22" rx="4"/>
    <rect x="1176" y="72" width="8" height="22" rx="4" transform="rotate(45 1180 83)"/>
    <rect x="1176" y="72" width="8" height="22" rx="4" transform="rotate(90 1180 83)"/>
    <rect x="1176" y="72" width="8" height="22" rx="4" transform="rotate(-45 1180 83)"/>
  </g>
  <ellipse cx="720" cy="720" rx="820" ry="200" fill="url(#hill-far)" opacity="0.85"/>
  <ellipse cx="680" cy="780" rx="900" ry="240" fill="url(#hill-near)"/>
  <g opacity="0.5">
    <ellipse cx="200" cy="200" rx="140" ry="36" fill="#fff" opacity="0.35"/>
    <ellipse cx="420" cy="160" rx="100" ry="28" fill="#fff" opacity="0.28"/>
    <ellipse cx="900" cy="220" rx="160" ry="40" fill="#fff" opacity="0.22"/>
  </g>
  <g transform="translate(180 520)">
    <path d="M0 120 L80 60 L160 120 L160 200 L0 200 Z" fill="#4a8f3c"/>
    <path d="M0 120 L80 60 L160 120" fill="none" stroke="#2e5d32" stroke-width="2" opacity="0.3"/>
    <path d="M200 130 L280 75 L360 130 L360 200 L200 200 Z" fill="#5a9e48"/>
    <path d="M400 125 L480 70 L560 125 L560 200 L400 200 Z" fill="#d4a017" opacity="0.85"/>
    <path d="M420 125 L500 70 L580 125 L580 200 L420 200 Z" fill="#e8bc2e" opacity="0.9"/>
  </g>
  <g transform="translate(920 440)">
    <path d="M60 180 L140 120 L220 180 L220 280 L60 280 Z" fill="#c62828"/>
    <path d="M60 180 L140 120 L220 180" fill="#8e0000" opacity="0.35"/>
    <path d="M100 180 L140 150 L180 180 L180 280 L100 280 Z" fill="#b71c1c"/>
    <rect x="118" y="220" width="44" height="60" fill="#5d4037"/>
    <rect x="128" y="235" width="24" height="35" fill="#8d6e63"/>
    <path d="M130 120 L140 80 L150 120 Z" fill="#5d4037"/>
    <ellipse cx="200" cy="200" rx="28" ry="12" fill="#2e5d32" opacity="0.6"/>
    <ellipse cx="240" cy="210" rx="22" ry="10" fill="#388e3c" opacity="0.5"/>
  </g>
  <g fill="#ff9800" opacity="0.7">
    <ellipse cx="320" cy="380" rx="8" ry="5" transform="rotate(-20 320 380)"/>
    <ellipse cx="1050" cy="420" rx="7" ry="4" transform="rotate(15 1050 420)"/>
    <ellipse cx="600" cy="350" rx="6" ry="4"/>
  </g>
  <g stroke="#fff" stroke-width="2" fill="none" opacity="0.25">
    <path d="M100 300 Q200 280 300 300"/>
    <path d="M1100 320 Q1200 300 1300 330"/>
  </g>
</svg>
