<svg xmlns="http://www.w3.org/2000/svg" viewBox="0 0 1440 900" preserveAspectRatio="xMidYMid slice">
  <defs>
    <linearGradient id="sky" x1="0%" y1="0%" x2="100%" y2="100%">
      <stop offset="0%" stop-color="#81d4fa"/>
      <stop offset="40%" stop-color="#a5d6a7"/>
      <stop offset="100%" stop-color="#2e7d32"/>
    </linearGradient>
    <linearGradient id="field" x1="0%" y1="0%" x2="0%" y2="100%">
      <stop offset="0%" stop-color="#66bb6a"/>
      <stop offset="100%" stop-color="#388e3c"/>
    </linearGradient>
  </defs>
  <rect width="1440" height="900" fill="url(#sky)"/>
  <ellipse cx="200" cy="120" rx="90" ry="35" fill="#fff" opacity="0.5"/>
  <ellipse cx="380" cy="90" rx="110" ry="40" fill="#fff" opacity="0.4"/>
  <ellipse cx="1200" cy="100" rx="100" ry="38" fill="#fff" opacity="0.35"/>
  <circle cx="200" cy="110" r="48" fill="#fff9c4" opacity="0.9"/>
  <circle cx="200" cy="110" r="38" fill="#ffee58"/>
  <ellipse cx="720" cy="820" rx="950" ry="280" fill="url(#field)"/>
  <g transform="translate(120 580)" opacity="0.9">
    <path d="M0 100 L70 50 L140 100 L140 160 L0 160 Z" fill="#8bc34a"/>
    <path d="M160 95 L230 48 L300 95 L300 160 L160 160 Z" fill="#4caf50"/>
    <path d="M320 100 L390 55 L460 100 L460 160 L320 160 Z" fill="#aed581"/>
    <rect x="30" y="70" width="8" height="35" fill="#33691e" opacity="0.5"/>
    <rect x="190" y="65" width="8" height="40" fill="#33691e" opacity="0.5"/>
    <rect x="350" y="72" width="8" height="32" fill="#33691e" opacity="0.5"/>
  </g>
  <g transform="translate(780 480)">
    <path d="M40 200 L120 140 L200 200 L200 300 L40 300 Z" fill="#ef6c00" opacity="0.15"/>
    <path d="M80 200 L160 140 L240 200 L240 320 L80 320 Z" fill="#fff" opacity="0.12"/>
    <rect x="100" y="240" width="120" height="8" fill="#fff" opacity="0.2" rx="2"/>
    <text x="160" y="270" text-anchor="middle" fill="#fff" font-family="system-ui,sans-serif" font-size="14" opacity="0.35">+</text>
  </g>
  <g transform="translate(1000 520)">
    <ellipse cx="60" cy="140" rx="50" ry="22" fill="#5d4037" opacity="0.4"/>
    <path d="M20 140 Q60 80 100 140" fill="none" stroke="#2e7d32" stroke-width="4"/>
    <circle cx="100" cy="95" r="28" fill="#81c784"/>
    <circle cx="85" cy="88" r="22" fill="#a5d6a7"/>
  </g>
  <g fill="#ffeb3b" opacity="0.65">
    <circle cx="500" cy="400" r="4"/>
    <circle cx="520" cy="390" r="3"/>
    <circle cx="900" cy="380" r="4"/>
    <circle cx="1100" cy="420" r="3"/>
  </g>
  <path d="M0 750 Q360 680 720 720 T1440 740 L1440 900 L0 900 Z" fill="#1b5e20" opacity="0.25"/>
</svg>
