<svg xmlns="http://www.w3.org/2000/svg" viewBox="0 0 1200 675" preserveAspectRatio="xMidYMid slice">
  <defs>
    <linearGradient id="sky" x1="0" y1="0" x2="1" y2="1">
      <stop offset="0%" stop-color="#ff9a56"/>
      <stop offset="50%" stop-color="#ff6b6b"/>
      <stop offset="100%" stop-color="#c44569"/>
    </linearGradient>
    <linearGradient id="field" x1="0" y1="0" x2="0" y2="1">
      <stop offset="0%" stop-color="#d4a574"/>
      <stop offset="100%" stop-color="#8b6914"/>
    </linearGradient>
  </defs>
  <rect width="1200" height="675" fill="url(#sky)"/>
  <ellipse cx="300" cy="100" rx="140" ry="50" fill="#fff" opacity="0.5"/>
  <ellipse cx="900" cy="80" rx="180" ry="55" fill="#ffeaa7" opacity="0.4"/>
  <g transform="translate(600 420)">
    <polygon points="0,-70 220,0 0,70 -220,0" fill="url(#field)"/>
    <polygon points="0,70 220,0 220,20 0,90" fill="#6b5210"/>
    <polygon points="0,70 -220,0 -220,20 0,90" fill="#4a3810"/>
    <rect x="-50" y="-35" width="40" height="30" fill="#fff" transform="skewY(-20)"/>
    <polygon points="-80,-20 -40,-45 0,-20" fill="#c0392b"/>
    <circle cx="90" cy="30" r="22" fill="#27ae60"/>
    <circle cx="130" cy="0" r="16" fill="#2ecc71"/>
  </g>
</svg>
