<svg xmlns="http://www.w3.org/2000/svg" viewBox="0 0 200 200" role="img" aria-label="The Happier Farm">
  <defs>
    <linearGradient id="hf-sky" x1="0%" y1="0%" x2="100%" y2="100%">
      <stop offset="0%" stop-color="#5eead4"/>
      <stop offset="55%" stop-color="#22c55e"/>
      <stop offset="100%" stop-color="#15803d"/>
    </linearGradient>
    <linearGradient id="hf-sun" x1="0%" y1="0%" x2="0%" y2="100%">
      <stop offset="0%" stop-color="#fef08a"/>
      <stop offset="100%" stop-color="#f59e0b"/>
    </linearGradient>
    <radialGradient id="hf-glow" cx="50%" cy="55%" r="50%">
      <stop offset="0%" stop-color="#4ade80" stop-opacity="0.35"/>
      <stop offset="100%" stop-color="#4ade80" stop-opacity="0"/>
    </radialGradient>
    <filter id="hf-soft" x="-20%" y="-20%" width="140%" height="140%">
      <feGaussianBlur stdDeviation="2" result="b"/>
      <feMerge><feMergeNode in="b"/><feMergeNode in="SourceGraphic"/></feMerge>
    </filter>
  </defs>
  <circle cx="100" cy="108" r="78" fill="url(#hf-glow)"/>
  <circle cx="132" cy="52" r="22" fill="url(#hf-sun)"/>
  <g fill="#fde68a" opacity="0.9">
    <rect x="130" y="24" width="5" height="14" rx="2.5"/>
    <rect x="130" y="24" width="5" height="14" rx="2.5" transform="rotate(45 132.5 31)"/>
    <rect x="130" y="24" width="5" height="14" rx="2.5" transform="rotate(90 132.5 31)"/>
    <rect x="130" y="24" width="5" height="14" rx="2.5" transform="rotate(-45 132.5 31)"/>
  </g>
  <path d="M28 128 L100 88 L172 128 L172 152 L28 152 Z" fill="#4ade80"/>
  <path d="M28 128 L100 88 L172 128" fill="none" stroke="#14532d" stroke-width="2.5" opacity="0.4"/>
  <path d="M68 118 h64 v34 h-64 z" fill="#dc2626"/>
  <path d="M78 132 h44 v20 h-44 z" fill="#fef9c3"/>
  <rect x="92" y="138" width="16" height="14" rx="2" fill="#92400e"/>
  <circle cx="98" cy="145" r="2" fill="#451a03"/>
  <path d="M58 108 q14 -18 28 0" fill="none" stroke="#a3e635" stroke-width="5" stroke-linecap="round"/>
  <path d="M114 108 q14 -18 28 0" fill="none" stroke="#86efac" stroke-width="4" stroke-linecap="round"/>
  <ellipse cx="100" cy="156" rx="52" ry="8" fill="#166534" opacity="0.25"/>
</svg>
