<svg xmlns="http://www.w3.org/2000/svg" viewBox="0 0 120 120" role="img" aria-label="The Happier Farm">
  <defs>
    <linearGradient id="sky" x1="0%" y1="0%" x2="100%" y2="100%">
      <stop offset="0%" stop-color="#5eead4"/>
      <stop offset="100%" stop-color="#22c55e"/>
    </linearGradient>
    <linearGradient id="sun" x1="0%" y1="0%" x2="0%" y2="100%">
      <stop offset="0%" stop-color="#fde68a"/>
      <stop offset="100%" stop-color="#f59e0b"/>
    </linearGradient>
  </defs>
  <circle cx="60" cy="60" r="56" fill="url(#sky)" opacity="0.25"/>
  <circle cx="78" cy="32" r="16" fill="url(#sun)"/>
  <g fill="#fde68a" opacity="0.85">
    <rect x="76" y="14" width="4" height="10" rx="2"/>
    <rect x="76" y="14" width="4" height="10" rx="2" transform="rotate(45 78 19)"/>
    <rect x="76" y="14" width="4" height="10" rx="2" transform="rotate(-45 78 19)"/>
  </g>
  <path d="M20 78 L60 52 L100 78 L100 92 L20 92 Z" fill="#4ade80"/>
  <path d="M20 78 L60 52 L100 78" fill="none" stroke="#166534" stroke-width="2" opacity="0.35"/>
  <path d="M44 72 h32 v20 h-32 z" fill="#b91c1c"/>
  <path d="M52 82 h16 v10 h-16 z" fill="#fef3c7"/>
  <circle cx="56" cy="86" r="1.5" fill="#92400e"/>
  <path d="M48 68 q6 -8 12 0" fill="none" stroke="#a3e635" stroke-width="3" stroke-linecap="round"/>
</svg>
